<svg height="512pt" viewBox="0 0 512 512" width="512pt" xmlns="http://www.w3.org/2000/svg"><path d="m512 256c0 141.386719-114.613281 256-256 256s-256-114.613281-256-256 114.613281-256 256-256 256 114.613281 256 256zm0 0" fill="#00f8fe"/><path d="m512 256c0-28.039062-4.523438-55.019531-12.851562-80.265625l-88.320313-88.316406h-30.542969v24.902343h-223.785156l-24.785156-24.902343h-30.542969v116.074219c-10.761719 2.789062-18.707031 12.566406-18.707031 24.199218v33.527344h-17.410156v135.824219l97.277343 97.277343c29.011719 11.410157 60.605469 17.679688 93.667969 17.679688 141.386719 0 256-114.613281 256-256zm0 0" fill="#00d9e0"/><path d="m101.171875 87.417969h30.542969v29.886719h-30.542969zm0 0" fill="#e67500"/><path d="m380.285156 87.417969h30.542969v29.886719h-30.542969zm0 0" fill="#c06100"/><path d="m101.171875 112.320312h309.65625v96.777344h-309.65625zm0 0" fill="#ff9a00"/><path d="m256 112.320312h154.828125v96.78125h-154.828125zm0 0" fill="#e67500"/><path d="m231.476562 217.457031h-91.269531c-8.480469 0-15.417969-6.9375-15.417969-15.417969v-25.914062c0-8.480469 6.9375-15.417969 15.417969-15.417969h91.269531c8.476563 0 15.417969 6.9375 15.417969 15.417969v25.914062c0 8.480469-6.941406 15.417969-15.417969 15.417969zm0 0" fill="#fff"/><path d="m371.769531 217.457031h-91.269531c-8.480469 0-15.417969-6.9375-15.417969-15.417969v-25.914062c0-8.480469 6.9375-15.417969 15.417969-15.417969h91.269531c8.476563 0 15.414063 6.9375 15.414063 15.417969v25.914062c0 8.480469-6.9375 15.417969-15.414063 15.417969zm0 0" fill="#fff5cb"/><path d="m429.511719 266.734375h-347.046875v-39.042969c0-13.804687 11.191406-25 25-25h297.046875c13.804687 0 25 11.195313 25 25zm0 0" fill="#08f"/><path d="m429.511719 227.691406v39.039063h-173.511719v-64.039063h148.511719c2.179687 0 4.296875.277344 6.316406.808594 10.75 2.800781 18.683594 12.570312 18.683594 24.191406zm0 0" fill="#005ed3"/><path d="m65.054688 332.289062h36.117187v64.753907h-36.117187zm0 0" fill="#e67500"/><path d="m410.828125 332.289062h36.117187v64.753907h-36.117187zm0 0" fill="#c06100"/><path d="m65.054688 261.21875h381.890624v83.777344h-381.890624zm0 0" fill="#ff9a00"/><path d="m256 261.21875h190.941406v83.78125h-190.941406zm0 0" fill="#e67500"/></svg>