<svg height="480pt" viewBox="0 -44 480 480" width="480pt" xmlns="http://www.w3.org/2000/svg"><path d="m448 80h24v48h-24zm0 0" fill="#acabb1"/><path d="m112 72v128h-80v-192h80zm0 0" fill="#3e3d42"/><path d="m448 128v72h-80v-192h80zm0 0" fill="#3e3d42"/><path d="m8 80h24v48h-24zm0 0" fill="#acabb1"/><path d="m368 72v64h-256v-64zm0 0" fill="#acabb1"/><g fill="#ffe6c6"><path d="m176 72v32h-32v-64h32zm0 0"/><path d="m216 104v8h-32v-88h32zm0 0"/><path d="m256 72v32h-32v-80h32zm0 0"/><path d="m296 72v24h-32v-64h32zm0 0"/><path d="m289.359375 136 6.640625-8v-72h40v80l-16 72-16 40v136h-136l8-120-24-48v-80zm0 0"/></g><path d="m472 72h-16v-64c0-4.417969-3.582031-8-8-8h-80c-4.417969 0-8 3.582031-8 8v56h-16v-8c0-4.417969-3.582031-8-8-8h-32v-16c0-4.417969-3.582031-8-8-8h-32c0-4.417969-3.582031-8-8-8h-32c-1.417969.035156-2.800781.460938-4 1.222656-1.199219-.761718-2.582031-1.1875-4-1.222656h-32c-4.417969 0-8 3.582031-8 8v8h-32c-4.417969 0-8 3.582031-8 8v24h-16v-56c0-4.417969-3.582031-8-8-8h-80c-4.417969 0-8 3.582031-8 8v64h-16c-4.417969 0-8 3.582031-8 8v48c0 4.417969 3.582031 8 8 8h16v64c0 4.417969 3.582031 8 8 8h80c4.417969 0 8-3.582031 8-8v-56h24v72c0 1.242188.285156 2.464844.839844 3.574219l23.03125 46.066406-7.871094 117.832031c-.144531 2.210938.632812 4.382813 2.148438 6 1.515624 1.617188 3.636718 2.53125 5.851562 2.527344h136c4.417969 0 8-3.582031 8-8v-134.464844l15.433594-38.558594c.152344-.40625.28125-.820312.382812-1.242187l14.582032-65.734375h17.601562v56c0 4.417969 3.582031 8 8 8h80c4.417969 0 8-3.582031 8-8v-64h16c4.417969 0 8-3.582031 8-8v-48c0-4.417969-3.582031-8-8-8zm-200-32h16v48h-16zm-40-8h16v64h-16zm-40 0h16v72h-16zm-40 16h16v48h-16zm-136 72v-32h8v32zm88 72h-64v-176h64zm16-112h16v24c0 4.417969 3.582031 8 8 8h32c0 4.417969 3.582031 8 8 8h32c4.417969 0 8-3.582031 8-8h32c4.417969 0 8-3.582031 8-8h24v21.105469l-2.398438 2.894531h-165.601562zm192.328125 125.601562-15.761719 39.390626c-.378906.957031-.570312 1.976562-.566406 3.007812v128h-119.449219l7.449219-111.472656c.101562-1.414063-.175781-2.832032-.800781-4.101563l-23.199219-46.3125v-70.113281h112.257812l-22.402343 26.878906c-1.199219 1.4375-1.855469 3.25-1.855469 5.121094v24h16v-21.105469l38.152344-45.773437c1.195312-1.4375 1.847656-3.25 1.847656-5.121094v-64h24v71.113281zm31.671875-77.601562v-48h16v48zm96 64h-64v-176h64zm24-72h-8v-32h8zm0 0" fill="#231f20"/></svg>